<svg xmlns="http://www.w3.org/2000/svg" xmlns:xlink="http://www.w3.org/1999/xlink" width="500" zoomAndPan="magnify" viewBox="0 0 375 374.999991" height="500" preserveAspectRatio="xMidYMid meet" version="1.0"><path fill="#504e54" d="M 358.503906 66.902344 L 308.023438 16.417969 C 300.597656 8.992188 288.5625 8.992188 281.136719 16.417969 L 44.105469 253.453125 L 10.582031 356.121094 C 8.953125 361.164062 13.761719 365.972656 18.804688 364.34375 L 121.472656 330.820312 L 358.503906 93.789062 C 365.933594 86.363281 365.933594 74.328125 358.503906 66.902344 Z M 98.796875 299.246094 C 98.714844 299.246094 98.675781 299.285156 98.636719 299.285156 C 98.636719 299.246094 98.675781 299.167969 98.675781 299.125 C 98.675781 299.167969 98.714844 299.167969 98.714844 299.207031 C 98.714844 299.207031 98.753906 299.207031 98.796875 299.246094 Z M 75.796875 276.25 C 75.757812 276.25 75.679688 276.289062 75.640625 276.289062 C 75.640625 276.25 75.679688 276.210938 75.679688 276.132812 C 75.71875 276.171875 75.71875 276.210938 75.71875 276.210938 C 75.757812 276.25 75.796875 276.25 75.796875 276.25 Z M 115.078125 320.375 L 51.375 341.148438 L 33.777344 323.554688 L 54.550781 259.847656 L 55.542969 258.855469 C 59.394531 258.457031 63.40625 259.648438 66.347656 262.628906 C 71.511719 267.789062 71.511719 276.210938 66.347656 281.375 C 65.195312 282.566406 65.195312 284.433594 66.347656 285.582031 C 67.5 286.773438 69.40625 286.773438 70.558594 285.582031 C 75.71875 280.421875 84.140625 280.421875 89.34375 285.582031 C 94.507812 290.789062 94.507812 299.207031 89.34375 304.371094 C 88.152344 305.523438 88.152344 307.429688 89.34375 308.582031 C 90.496094 309.734375 92.363281 309.734375 93.554688 308.582031 C 98.71875 303.417969 107.136719 303.417969 112.300781 308.582031 C 115.28125 311.519531 116.46875 315.53125 116.074219 319.382812 Z M 347.863281 87.59375 L 336.898438 98.554688 C 334.515625 100.9375 330.664062 100.9375 328.320312 98.554688 L 276.371094 46.605469 C 273.988281 44.261719 273.988281 40.410156 276.371094 38.027344 L 287.332031 27.0625 C 291.34375 23.054688 297.820312 23.054688 301.828125 27.0625 L 347.863281 73.097656 C 351.871094 77.109375 351.871094 83.582031 347.863281 87.59375 Z M 347.863281 87.59375 " fill-opacity="1" fill-rule="nonzero"/></svg>